<svg xmlns="http://www.w3.org/2000/svg" xmlns:xlink="http://www.w3.org/1999/xlink" contentStyleType="text/css" data-diagram-type="CLASS" height="518px" preserveAspectRatio="none" style="width:4771px;height:518px;background:#FFFFFF;" version="1.1" viewBox="0 0 4771 518" width="4771px" zoomAndPan="magnify"><defs/><g><!--cluster Presentation Layer--><g class="cluster" data-entity="Presentation Layer" data-source-line="3" data-uid="ent0002" id="cluster_Presentation Layer"><rect fill="none" height="274" rx="2.5" ry="2.5" style="stroke:#000000;stroke-width:1.5;" width="1398" x="7" y="7"/><text fill="#000000" font-family="sans-serif" font-size="14" font-weight="bold" lengthAdjust="spacing" textLength="150.4385" x="630.7808" y="21.9951">Presentation Layer</text></g><!--cluster View--><g class="cluster" data-entity="View" data-source-line="9" data-uid="ent0007" id="cluster_View"><rect fill="none" height="207" rx="2.5" ry="2.5" style="stroke:#000000;stroke-width:1.5;" width="353" x="31" y="50"/><text fill="#000000" font-family="sans-serif" font-size="14" font-weight="bold" lengthAdjust="spacing" textLength="38.0625" x="188.4688" y="64.9951">View</text></g><!--cluster Application Layer--><g class="cluster" data-entity="Application Layer" data-source-line="17" data-uid="ent0012" id="cluster_Application Layer"><rect fill="none" height="246" rx="2.5" ry="2.5" style="stroke:#000000;stroke-width:1.5;" width="1469" x="1429" y="158"/><text fill="#000000" font-family="sans-serif" font-size="14" font-weight="bold" lengthAdjust="spacing" textLength="138.0654" x="2094.4673" y="172.9951">Application Layer</text></g><!--cluster Domain Layer--><g class="cluster" data-entity="Domain Layer" data-source-line="29" data-uid="ent0021" id="cluster_Domain Layer"><rect fill="none" height="207" rx="2.5" ry="2.5" style="stroke:#000000;stroke-width:1.5;" width="1077" x="3688" y="305"/><text fill="#000000" font-family="sans-serif" font-size="14" font-weight="bold" lengthAdjust="spacing" textLength="108.8076" x="4172.0962" y="319.9951">Domain Layer</text></g><!--cluster Infrastructure Layer--><g class="cluster" data-entity="Infrastructure Layer" data-source-line="39" data-uid="ent0029" id="cluster_Infrastructure Layer"><rect fill="none" height="99" rx="2.5" ry="2.5" style="stroke:#000000;stroke-width:1.5;" width="742" x="2922" y="305"/><text fill="#000000" font-family="sans-serif" font-size="14" font-weight="bold" lengthAdjust="spacing" textLength="159.6396" x="3213.1802" y="319.9951">Infrastructure Layer</text></g><!--class ApplicationControllerWithActionMenu--><g class="entity" data-entity="ApplicationControllerWithActionMenu" data-source-line="4" data-uid="ent0003" id="entity_ApplicationControllerWithActionMenu"><rect fill="#F1F1F1" height="48" rx="2.5" ry="2.5" style="stroke:#181818;stroke-width:0.5;" width="294.0215" x="399.99" y="85"/><ellipse cx="414.99" cy="101" fill="#ADD1B2" rx="11" ry="11" style="stroke:#181818;stroke-width:1;"/><path d="M417.9588,106.6406 Q417.3806,106.9375 416.74,107.0781 Q416.0994,107.2344 415.3963,107.2344 Q412.8963,107.2344 411.5681,105.5938 Q410.2556,103.9375 410.2556,100.8125 Q410.2556,97.6875 411.5681,96.0313 Q412.8963,94.375 415.3963,94.375 Q416.0994,94.375 416.74,94.5313 Q417.3963,94.6875 417.9588,94.9844 L417.9588,97.7031 Q417.3338,97.125 416.74,96.8594 Q416.1463,96.5781 415.5213,96.5781 Q414.1775,96.5781 413.49,97.6563 Q412.8025,98.7188 412.8025,100.8125 Q412.8025,102.9063 413.49,103.9844 Q414.1775,105.0469 415.5213,105.0469 Q416.1463,105.0469 416.74,104.7813 Q417.3338,104.5 417.9588,103.9219 L417.9588,106.6406 Z " fill="#000000"/><text fill="#000000" font-family="sans-serif" font-size="14" lengthAdjust="spacing" textLength="262.0215" x="428.99" y="105.8467">ApplicationControllerWithActionMenu</text><line style="stroke:#181818;stroke-width:0.5;" x1="400.99" x2="693.0115" y1="117" y2="117"/><line style="stroke:#181818;stroke-width:0.5;" x1="400.99" x2="693.0115" y1="125" y2="125"/></g><!--class AcChargingController--><g class="entity" data-entity="AcChargingController" data-source-line="5" data-uid="ent0004" id="entity_AcChargingController"><rect fill="#F1F1F1" height="48" rx="2.5" ry="2.5" style="stroke:#181818;stroke-width:0.5;" width="181.9668" x="729.02" y="85"/><ellipse cx="744.02" cy="101" fill="#ADD1B2" rx="11" ry="11" style="stroke:#181818;stroke-width:1;"/><path d="M746.9888,106.6406 Q746.4106,106.9375 745.77,107.0781 Q745.1294,107.2344 744.4263,107.2344 Q741.9263,107.2344 740.5981,105.5938 Q739.2856,103.9375 739.2856,100.8125 Q739.2856,97.6875 740.5981,96.0313 Q741.9263,94.375 744.4263,94.375 Q745.1294,94.375 745.77,94.5313 Q746.4263,94.6875 746.9888,94.9844 L746.9888,97.7031 Q746.3638,97.125 745.77,96.8594 Q745.1763,96.5781 744.5513,96.5781 Q743.2075,96.5781 742.52,97.6563 Q741.8325,98.7188 741.8325,100.8125 Q741.8325,102.9063 742.52,103.9844 Q743.2075,105.0469 744.5513,105.0469 Q745.1763,105.0469 745.77,104.7813 Q746.3638,104.5 746.9888,103.9219 L746.9888,106.6406 Z " fill="#000000"/><text fill="#000000" font-family="sans-serif" font-size="14" lengthAdjust="spacing" textLength="149.9668" x="758.02" y="105.8467">AcChargingController</text><line style="stroke:#181818;stroke-width:0.5;" x1="730.02" x2="909.9868" y1="117" y2="117"/><line style="stroke:#181818;stroke-width:0.5;" x1="730.02" x2="909.9868" y1="125" y2="125"/></g><!--class DcChargingController--><g class="entity" data-entity="DcChargingController" data-source-line="6" data-uid="ent0005" id="entity_DcChargingController"><rect fill="#F1F1F1" height="48" rx="2.5" ry="2.5" style="stroke:#181818;stroke-width:0.5;" width="183.1699" x="946.42" y="85"/><ellipse cx="961.42" cy="101" fill="#ADD1B2" rx="11" ry="11" style="stroke:#181818;stroke-width:1;"/><path d="M964.3888,106.6406 Q963.8106,106.9375 963.17,107.0781 Q962.5294,107.2344 961.8263,107.2344 Q959.3263,107.2344 957.9981,105.5938 Q956.6856,103.9375 956.6856,100.8125 Q956.6856,97.6875 957.9981,96.0313 Q959.3263,94.375 961.8263,94.375 Q962.5294,94.375 963.17,94.5313 Q963.8263,94.6875 964.3888,94.9844 L964.3888,97.7031 Q963.7638,97.125 963.17,96.8594 Q962.5763,96.5781 961.9513,96.5781 Q960.6075,96.5781 959.92,97.6563 Q959.2325,98.7188 959.2325,100.8125 Q959.2325,102.9063 959.92,103.9844 Q960.6075,105.0469 961.9513,105.0469 Q962.5763,105.0469 963.17,104.7813 Q963.7638,104.5 964.3888,103.9219 L964.3888,106.6406 Z " fill="#000000"/><text fill="#000000" font-family="sans-serif" font-size="14" lengthAdjust="spacing" textLength="151.1699" x="975.42" y="105.8467">DcChargingController</text><line style="stroke:#181818;stroke-width:0.5;" x1="947.42" x2="1128.5899" y1="117" y2="117"/><line style="stroke:#181818;stroke-width:0.5;" x1="947.42" x2="1128.5899" y1="125" y2="125"/></g><!--class RangeCalculationController--><g class="entity" data-entity="RangeCalculationController" data-source-line="7" data-uid="ent0006" id="entity_RangeCalculationController"><rect fill="#F1F1F1" height="48" rx="2.5" ry="2.5" style="stroke:#181818;stroke-width:0.5;" width="223.9531" x="1165.02" y="85"/><ellipse cx="1180.02" cy="101" fill="#ADD1B2" rx="11" ry="11" style="stroke:#181818;stroke-width:1;"/><path d="M1182.9888,106.6406 Q1182.4106,106.9375 1181.77,107.0781 Q1181.1294,107.2344 1180.4263,107.2344 Q1177.9263,107.2344 1176.5981,105.5938 Q1175.2856,103.9375 1175.2856,100.8125 Q1175.2856,97.6875 1176.5981,96.0313 Q1177.9263,94.375 1180.4263,94.375 Q1181.1294,94.375 1181.77,94.5313 Q1182.4263,94.6875 1182.9888,94.9844 L1182.9888,97.7031 Q1182.3638,97.125 1181.77,96.8594 Q1181.1763,96.5781 1180.5513,96.5781 Q1179.2075,96.5781 1178.52,97.6563 Q1177.8325,98.7188 1177.8325,100.8125 Q1177.8325,102.9063 1178.52,103.9844 Q1179.2075,105.0469 1180.5513,105.0469 Q1181.1763,105.0469 1181.77,104.7813 Q1182.3638,104.5 1182.9888,103.9219 L1182.9888,106.6406 Z " fill="#000000"/><text fill="#000000" font-family="sans-serif" font-size="14" lengthAdjust="spacing" textLength="191.9531" x="1194.02" y="105.8467">RangeCalculationController</text><line style="stroke:#181818;stroke-width:0.5;" x1="1166.02" x2="1387.9731" y1="117" y2="117"/><line style="stroke:#181818;stroke-width:0.5;" x1="1166.02" x2="1387.9731" y1="125" y2="125"/></g><!--class WelcomeView--><g class="entity" data-entity="WelcomeView" data-source-line="10" data-uid="ent0008" id="entity_WelcomeView"><rect fill="#F1F1F1" height="48" rx="2.5" ry="2.5" style="stroke:#181818;stroke-width:0.5;" width="130.3896" x="50.81" y="85"/><ellipse cx="65.81" cy="101" fill="#ADD1B2" rx="11" ry="11" style="stroke:#181818;stroke-width:1;"/><path d="M68.7788,106.6406 Q68.2006,106.9375 67.56,107.0781 Q66.9194,107.2344 66.2163,107.2344 Q63.7163,107.2344 62.3881,105.5938 Q61.0756,103.9375 61.0756,100.8125 Q61.0756,97.6875 62.3881,96.0313 Q63.7163,94.375 66.2163,94.375 Q66.9194,94.375 67.56,94.5313 Q68.2163,94.6875 68.7788,94.9844 L68.7788,97.7031 Q68.1538,97.125 67.56,96.8594 Q66.9663,96.5781 66.3413,96.5781 Q64.9975,96.5781 64.31,97.6563 Q63.6225,98.7188 63.6225,100.8125 Q63.6225,102.9063 64.31,103.9844 Q64.9975,105.0469 66.3413,105.0469 Q66.9663,105.0469 67.56,104.7813 Q68.1538,104.5 68.7788,103.9219 L68.7788,106.6406 Z " fill="#000000"/><text fill="#000000" font-family="sans-serif" font-size="14" lengthAdjust="spacing" textLength="98.3896" x="79.81" y="105.8467">WelcomeView</text><line style="stroke:#181818;stroke-width:0.5;" x1="51.81" x2="180.1996" y1="117" y2="117"/><line style="stroke:#181818;stroke-width:0.5;" x1="51.81" x2="180.1996" y1="125" y2="125"/></g><!--class CarProfileView--><g class="entity" data-entity="CarProfileView" data-source-line="11" data-uid="ent0009" id="entity_CarProfileView"><rect fill="#F1F1F1" height="48" rx="2.5" ry="2.5" style="stroke:#181818;stroke-width:0.5;" width="133.7256" x="216.14" y="85"/><ellipse cx="231.14" cy="101" fill="#ADD1B2" rx="11" ry="11" style="stroke:#181818;stroke-width:1;"/><path d="M234.1088,106.6406 Q233.5306,106.9375 232.89,107.0781 Q232.2494,107.2344 231.5463,107.2344 Q229.0463,107.2344 227.7181,105.5938 Q226.4056,103.9375 226.4056,100.8125 Q226.4056,97.6875 227.7181,96.0313 Q229.0463,94.375 231.5463,94.375 Q232.2494,94.375 232.89,94.5313 Q233.5463,94.6875 234.1088,94.9844 L234.1088,97.7031 Q233.4838,97.125 232.89,96.8594 Q232.2963,96.5781 231.6713,96.5781 Q230.3275,96.5781 229.64,97.6563 Q228.9525,98.7188 228.9525,100.8125 Q228.9525,102.9063 229.64,103.9844 Q230.3275,105.0469 231.6713,105.0469 Q232.2963,105.0469 232.89,104.7813 Q233.4838,104.5 234.1088,103.9219 L234.1088,106.6406 Z " fill="#000000"/><text fill="#000000" font-family="sans-serif" font-size="14" lengthAdjust="spacing" textLength="101.7256" x="245.14" y="105.8467">CarProfileView</text><line style="stroke:#181818;stroke-width:0.5;" x1="217.14" x2="348.8656" y1="117" y2="117"/><line style="stroke:#181818;stroke-width:0.5;" x1="217.14" x2="348.8656" y1="125" y2="125"/></g><!--class MainMenuView--><g class="entity" data-entity="MainMenuView" data-source-line="12" data-uid="ent0010" id="entity_MainMenuView"><rect fill="#F1F1F1" height="48" rx="2.5" ry="2.5" style="stroke:#181818;stroke-width:0.5;" width="137.3896" x="47.31" y="193"/><ellipse cx="62.31" cy="209" fill="#ADD1B2" rx="11" ry="11" style="stroke:#181818;stroke-width:1;"/><path d="M65.2788,214.6406 Q64.7006,214.9375 64.06,215.0781 Q63.4194,215.2344 62.7163,215.2344 Q60.2163,215.2344 58.8881,213.5938 Q57.5756,211.9375 57.5756,208.8125 Q57.5756,205.6875 58.8881,204.0313 Q60.2163,202.375 62.7163,202.375 Q63.4194,202.375 64.06,202.5313 Q64.7163,202.6875 65.2788,202.9844 L65.2788,205.7031 Q64.6538,205.125 64.06,204.8594 Q63.4663,204.5781 62.8413,204.5781 Q61.4975,204.5781 60.81,205.6563 Q60.1225,206.7188 60.1225,208.8125 Q60.1225,210.9063 60.81,211.9844 Q61.4975,213.0469 62.8413,213.0469 Q63.4663,213.0469 64.06,212.7813 Q64.6538,212.5 65.2788,211.9219 L65.2788,214.6406 Z " fill="#000000"/><text fill="#000000" font-family="sans-serif" font-size="14" lengthAdjust="spacing" textLength="105.3896" x="76.31" y="213.8467">MainMenuView</text><line style="stroke:#181818;stroke-width:0.5;" x1="48.31" x2="183.6996" y1="225" y2="225"/><line style="stroke:#181818;stroke-width:0.5;" x1="48.31" x2="183.6996" y1="233" y2="233"/></g><!--class ActionMenuView--><g class="entity" data-entity="ActionMenuView" data-source-line="13" data-uid="ent0011" id="entity_ActionMenuView"><rect fill="#F1F1F1" height="48" rx="2.5" ry="2.5" style="stroke:#181818;stroke-width:0.5;" width="148.0605" x="219.97" y="193"/><ellipse cx="234.97" cy="209" fill="#ADD1B2" rx="11" ry="11" style="stroke:#181818;stroke-width:1;"/><path d="M237.9388,214.6406 Q237.3606,214.9375 236.72,215.0781 Q236.0794,215.2344 235.3763,215.2344 Q232.8763,215.2344 231.5481,213.5938 Q230.2356,211.9375 230.2356,208.8125 Q230.2356,205.6875 231.5481,204.0313 Q232.8763,202.375 235.3763,202.375 Q236.0794,202.375 236.72,202.5313 Q237.3763,202.6875 237.9388,202.9844 L237.9388,205.7031 Q237.3138,205.125 236.72,204.8594 Q236.1263,204.5781 235.5013,204.5781 Q234.1575,204.5781 233.47,205.6563 Q232.7825,206.7188 232.7825,208.8125 Q232.7825,210.9063 233.47,211.9844 Q234.1575,213.0469 235.5013,213.0469 Q236.1263,213.0469 236.72,212.7813 Q237.3138,212.5 237.9388,211.9219 L237.9388,214.6406 Z " fill="#000000"/><text fill="#000000" font-family="sans-serif" font-size="14" lengthAdjust="spacing" textLength="116.0605" x="248.97" y="213.8467">ActionMenuView</text><line style="stroke:#181818;stroke-width:0.5;" x1="220.97" x2="367.0305" y1="225" y2="225"/><line style="stroke:#181818;stroke-width:0.5;" x1="220.97" x2="367.0305" y1="233" y2="233"/></g><!--class CalculateRangeUseCaseInterface--><g class="entity" data-entity="CalculateRangeUseCaseInterface" data-source-line="18" data-uid="ent0013" id="entity_CalculateRangeUseCaseInterface"><rect fill="#F1F1F1" height="48" rx="2.5" ry="2.5" style="stroke:#181818;stroke-width:0.5;" width="265.1602" x="1445.42" y="340"/><ellipse cx="1460.42" cy="356" fill="#B4A7E5" rx="11" ry="11" style="stroke:#181818;stroke-width:1;"/><path d="M1456.3419,351.7656 L1456.3419,349.6094 L1463.7325,349.6094 L1463.7325,351.7656 L1461.2638,351.7656 L1461.2638,359.8438 L1463.7325,359.8438 L1463.7325,362 L1456.3419,362 L1456.3419,359.8438 L1458.8106,359.8438 L1458.8106,351.7656 L1456.3419,351.7656 Z " fill="#000000"/><text fill="#000000" font-family="sans-serif" font-size="14" font-style="italic" lengthAdjust="spacing" textLength="233.1602" x="1474.42" y="360.8467">CalculateRangeUseCaseInterface</text><line style="stroke:#181818;stroke-width:0.5;" x1="1446.42" x2="1709.5802" y1="372" y2="372"/><line style="stroke:#181818;stroke-width:0.5;" x1="1446.42" x2="1709.5802" y1="380" y2="380"/></g><!--class CreateCarProfileUseCaseInterface--><g class="entity" data-entity="CreateCarProfileUseCaseInterface" data-source-line="19" data-uid="ent0014" id="entity_CreateCarProfileUseCaseInterface"><rect fill="#F1F1F1" height="48" rx="2.5" ry="2.5" style="stroke:#181818;stroke-width:0.5;" width="270.1162" x="2038.94" y="340"/><ellipse cx="2053.94" cy="356" fill="#B4A7E5" rx="11" ry="11" style="stroke:#181818;stroke-width:1;"/><path d="M2049.8619,351.7656 L2049.8619,349.6094 L2057.2525,349.6094 L2057.2525,351.7656 L2054.7838,351.7656 L2054.7838,359.8438 L2057.2525,359.8438 L2057.2525,362 L2049.8619,362 L2049.8619,359.8438 L2052.3306,359.8438 L2052.3306,351.7656 L2049.8619,351.7656 Z " fill="#000000"/><text fill="#000000" font-family="sans-serif" font-size="14" font-style="italic" lengthAdjust="spacing" textLength="238.1162" x="2067.94" y="360.8467">CreateCarProfileUseCaseInterface</text><line style="stroke:#181818;stroke-width:0.5;" x1="2039.94" x2="2308.0562" y1="372" y2="372"/><line style="stroke:#181818;stroke-width:0.5;" x1="2039.94" x2="2308.0562" y1="380" y2="380"/></g><!--class CarProfilePersistencePortInterface--><g class="entity" data-entity="CarProfilePersistencePortInterface" data-source-line="20" data-uid="ent0015" id="entity_CarProfilePersistencePortInterface"><rect fill="#F1F1F1" height="48" rx="2.5" ry="2.5" style="stroke:#181818;stroke-width:0.5;" width="271.7021" x="2610.15" y="193"/><ellipse cx="2625.15" cy="209" fill="#B4A7E5" rx="11" ry="11" style="stroke:#181818;stroke-width:1;"/><path d="M2621.0719,204.7656 L2621.0719,202.6094 L2628.4625,202.6094 L2628.4625,204.7656 L2625.9938,204.7656 L2625.9938,212.8438 L2628.4625,212.8438 L2628.4625,215 L2621.0719,215 L2621.0719,212.8438 L2623.5406,212.8438 L2623.5406,204.7656 L2621.0719,204.7656 Z " fill="#000000"/><text fill="#000000" font-family="sans-serif" font-size="14" font-style="italic" lengthAdjust="spacing" textLength="239.7021" x="2639.15" y="213.8467">CarProfilePersistencePortInterface</text><line style="stroke:#181818;stroke-width:0.5;" x1="2611.15" x2="2880.8521" y1="225" y2="225"/><line style="stroke:#181818;stroke-width:0.5;" x1="2611.15" x2="2880.8521" y1="233" y2="233"/></g><!--class UserInputPortInterface--><g class="entity" data-entity="UserInputPortInterface" data-source-line="21" data-uid="ent0016" id="entity_UserInputPortInterface"><rect fill="#F1F1F1" height="48" rx="2.5" ry="2.5" style="stroke:#181818;stroke-width:0.5;" width="191.0928" x="2132.45" y="193"/><ellipse cx="2147.45" cy="209" fill="#B4A7E5" rx="11" ry="11" style="stroke:#181818;stroke-width:1;"/><path d="M2143.3719,204.7656 L2143.3719,202.6094 L2150.7625,202.6094 L2150.7625,204.7656 L2148.2938,204.7656 L2148.2938,212.8438 L2150.7625,212.8438 L2150.7625,215 L2143.3719,215 L2143.3719,212.8438 L2145.8406,212.8438 L2145.8406,204.7656 L2143.3719,204.7656 Z " fill="#000000"/><text fill="#000000" font-family="sans-serif" font-size="14" font-style="italic" lengthAdjust="spacing" textLength="159.0928" x="2161.45" y="213.8467">UserInputPortInterface</text><line style="stroke:#181818;stroke-width:0.5;" x1="2133.45" x2="2322.5428" y1="225" y2="225"/><line style="stroke:#181818;stroke-width:0.5;" x1="2133.45" x2="2322.5428" y1="233" y2="233"/></g><!--class UserOutputPortInterface--><g class="entity" data-entity="UserOutputPortInterface" data-source-line="22" data-uid="ent0017" id="entity_UserOutputPortInterface"><rect fill="#F1F1F1" height="48" rx="2.5" ry="2.5" style="stroke:#181818;stroke-width:0.5;" width="203.4727" x="1894.26" y="193"/><ellipse cx="1909.26" cy="209" fill="#B4A7E5" rx="11" ry="11" style="stroke:#181818;stroke-width:1;"/><path d="M1905.1819,204.7656 L1905.1819,202.6094 L1912.5725,202.6094 L1912.5725,204.7656 L1910.1038,204.7656 L1910.1038,212.8438 L1912.5725,212.8438 L1912.5725,215 L1905.1819,215 L1905.1819,212.8438 L1907.6506,212.8438 L1907.6506,204.7656 L1905.1819,204.7656 Z " fill="#000000"/><text fill="#000000" font-family="sans-serif" font-size="14" font-style="italic" lengthAdjust="spacing" textLength="171.4727" x="1923.26" y="213.8467">UserOutputPortInterface</text><line style="stroke:#181818;stroke-width:0.5;" x1="1895.26" x2="2096.7327" y1="225" y2="225"/><line style="stroke:#181818;stroke-width:0.5;" x1="1895.26" x2="2096.7327" y1="233" y2="233"/></g><!--class CalculateRangeInteractor--><g class="entity" data-entity="CalculateRangeInteractor" data-source-line="24" data-uid="ent0018" id="entity_CalculateRangeInteractor"><rect fill="#F1F1F1" height="48" rx="2.5" ry="2.5" style="stroke:#181818;stroke-width:0.5;" width="211.0127" x="1445.49" y="193"/><ellipse cx="1460.49" cy="209" fill="#ADD1B2" rx="11" ry="11" style="stroke:#181818;stroke-width:1;"/><path d="M1463.4588,214.6406 Q1462.8806,214.9375 1462.24,215.0781 Q1461.5994,215.2344 1460.8963,215.2344 Q1458.3963,215.2344 1457.0681,213.5938 Q1455.7556,211.9375 1455.7556,208.8125 Q1455.7556,205.6875 1457.0681,204.0313 Q1458.3963,202.375 1460.8963,202.375 Q1461.5994,202.375 1462.24,202.5313 Q1462.8963,202.6875 1463.4588,202.9844 L1463.4588,205.7031 Q1462.8338,205.125 1462.24,204.8594 Q1461.6463,204.5781 1461.0213,204.5781 Q1459.6775,204.5781 1458.99,205.6563 Q1458.3025,206.7188 1458.3025,208.8125 Q1458.3025,210.9063 1458.99,211.9844 Q1459.6775,213.0469 1461.0213,213.0469 Q1461.6463,213.0469 1462.24,212.7813 Q1462.8338,212.5 1463.4588,211.9219 L1463.4588,214.6406 Z " fill="#000000"/><text fill="#000000" font-family="sans-serif" font-size="14" lengthAdjust="spacing" textLength="179.0127" x="1474.49" y="213.8467">CalculateRangeInteractor</text><line style="stroke:#181818;stroke-width:0.5;" x1="1446.49" x2="1655.5027" y1="225" y2="225"/><line style="stroke:#181818;stroke-width:0.5;" x1="1446.49" x2="1655.5027" y1="233" y2="233"/></g><!--class CreateCarProfileInteractor--><g class="entity" data-entity="CreateCarProfileInteractor" data-source-line="25" data-uid="ent0019" id="entity_CreateCarProfileInteractor"><rect fill="#F1F1F1" height="48" rx="2.5" ry="2.5" style="stroke:#181818;stroke-width:0.5;" width="215.9688" x="2359.02" y="193"/><ellipse cx="2374.02" cy="209" fill="#ADD1B2" rx="11" ry="11" style="stroke:#181818;stroke-width:1;"/><path d="M2376.9888,214.6406 Q2376.4106,214.9375 2375.77,215.0781 Q2375.1294,215.2344 2374.4263,215.2344 Q2371.9263,215.2344 2370.5981,213.5938 Q2369.2856,211.9375 2369.2856,208.8125 Q2369.2856,205.6875 2370.5981,204.0313 Q2371.9263,202.375 2374.4263,202.375 Q2375.1294,202.375 2375.77,202.5313 Q2376.4263,202.6875 2376.9888,202.9844 L2376.9888,205.7031 Q2376.3638,205.125 2375.77,204.8594 Q2375.1763,204.5781 2374.5513,204.5781 Q2373.2075,204.5781 2372.52,205.6563 Q2371.8325,206.7188 2371.8325,208.8125 Q2371.8325,210.9063 2372.52,211.9844 Q2373.2075,213.0469 2374.5513,213.0469 Q2375.1763,213.0469 2375.77,212.7813 Q2376.3638,212.5 2376.9888,211.9219 L2376.9888,214.6406 Z " fill="#000000"/><text fill="#000000" font-family="sans-serif" font-size="14" lengthAdjust="spacing" textLength="183.9688" x="2388.02" y="213.8467">CreateCarProfileInteractor</text><line style="stroke:#181818;stroke-width:0.5;" x1="2360.02" x2="2573.9888" y1="225" y2="225"/><line style="stroke:#181818;stroke-width:0.5;" x1="2360.02" x2="2573.9888" y1="233" y2="233"/></g><!--class NavigationUseCase--><g class="entity" data-entity="NavigationUseCase" data-source-line="26" data-uid="ent0020" id="entity_NavigationUseCase"><rect fill="#F1F1F1" height="48" rx="2.5" ry="2.5" style="stroke:#181818;stroke-width:0.5;" width="167.9258" x="1691.04" y="193"/><ellipse cx="1706.04" cy="209" fill="#ADD1B2" rx="11" ry="11" style="stroke:#181818;stroke-width:1;"/><path d="M1709.0088,214.6406 Q1708.4306,214.9375 1707.79,215.0781 Q1707.1494,215.2344 1706.4463,215.2344 Q1703.9463,215.2344 1702.6181,213.5938 Q1701.3056,211.9375 1701.3056,208.8125 Q1701.3056,205.6875 1702.6181,204.0313 Q1703.9463,202.375 1706.4463,202.375 Q1707.1494,202.375 1707.79,202.5313 Q1708.4463,202.6875 1709.0088,202.9844 L1709.0088,205.7031 Q1708.3838,205.125 1707.79,204.8594 Q1707.1963,204.5781 1706.5713,204.5781 Q1705.2275,204.5781 1704.54,205.6563 Q1703.8525,206.7188 1703.8525,208.8125 Q1703.8525,210.9063 1704.54,211.9844 Q1705.2275,213.0469 1706.5713,213.0469 Q1707.1963,213.0469 1707.79,212.7813 Q1708.3838,212.5 1709.0088,211.9219 L1709.0088,214.6406 Z " fill="#000000"/><text fill="#000000" font-family="sans-serif" font-size="14" lengthAdjust="spacing" textLength="135.9258" x="1720.04" y="213.8467">NavigationUseCase</text><line style="stroke:#181818;stroke-width:0.5;" x1="1692.04" x2="1857.9658" y1="225" y2="225"/><line style="stroke:#181818;stroke-width:0.5;" x1="1692.04" x2="1857.9658" y1="233" y2="233"/></g><!--class CarProfile--><g class="entity" data-entity="CarProfile" data-source-line="30" data-uid="ent0022" id="entity_CarProfile"><rect fill="#F1F1F1" height="48" rx="2.5" ry="2.5" style="stroke:#181818;stroke-width:0.5;" width="100.1953" x="4648.9" y="340"/><ellipse cx="4663.9" cy="356" fill="#ADD1B2" rx="11" ry="11" style="stroke:#181818;stroke-width:1;"/><path d="M4666.8688,361.6406 Q4666.2906,361.9375 4665.65,362.0781 Q4665.0094,362.2344 4664.3063,362.2344 Q4661.8063,362.2344 4660.4781,360.5938 Q4659.1656,358.9375 4659.1656,355.8125 Q4659.1656,352.6875 4660.4781,351.0313 Q4661.8063,349.375 4664.3063,349.375 Q4665.0094,349.375 4665.65,349.5313 Q4666.3063,349.6875 4666.8688,349.9844 L4666.8688,352.7031 Q4666.2438,352.125 4665.65,351.8594 Q4665.0563,351.5781 4664.4313,351.5781 Q4663.0875,351.5781 4662.4,352.6563 Q4661.7125,353.7188 4661.7125,355.8125 Q4661.7125,357.9063 4662.4,358.9844 Q4663.0875,360.0469 4664.4313,360.0469 Q4665.0563,360.0469 4665.65,359.7813 Q4666.2438,359.5 4666.8688,358.9219 L4666.8688,361.6406 Z " fill="#000000"/><text fill="#000000" font-family="sans-serif" font-size="14" lengthAdjust="spacing" textLength="68.1953" x="4677.9" y="360.8467">CarProfile</text><line style="stroke:#181818;stroke-width:0.5;" x1="4649.9" x2="4748.0953" y1="372" y2="372"/><line style="stroke:#181818;stroke-width:0.5;" x1="4649.9" x2="4748.0953" y1="380" y2="380"/></g><!--class BatteryProfile--><g class="entity" data-entity="BatteryProfile" data-source-line="31" data-uid="ent0023" id="entity_BatteryProfile"><rect fill="#F1F1F1" height="48" rx="2.5" ry="2.5" style="stroke:#181818;stroke-width:0.5;" width="127.9014" x="4621.05" y="448"/><ellipse cx="4636.05" cy="464" fill="#ADD1B2" rx="11" ry="11" style="stroke:#181818;stroke-width:1;"/><path d="M4639.0188,469.6406 Q4638.4406,469.9375 4637.8,470.0781 Q4637.1594,470.2344 4636.4563,470.2344 Q4633.9563,470.2344 4632.6281,468.5938 Q4631.3156,466.9375 4631.3156,463.8125 Q4631.3156,460.6875 4632.6281,459.0313 Q4633.9563,457.375 4636.4563,457.375 Q4637.1594,457.375 4637.8,457.5313 Q4638.4563,457.6875 4639.0188,457.9844 L4639.0188,460.7031 Q4638.3938,460.125 4637.8,459.8594 Q4637.2063,459.5781 4636.5813,459.5781 Q4635.2375,459.5781 4634.55,460.6563 Q4633.8625,461.7188 4633.8625,463.8125 Q4633.8625,465.9063 4634.55,466.9844 Q4635.2375,468.0469 4636.5813,468.0469 Q4637.2063,468.0469 4637.8,467.7813 Q4638.3938,467.5 4639.0188,466.9219 L4639.0188,469.6406 Z " fill="#000000"/><text fill="#000000" font-family="sans-serif" font-size="14" lengthAdjust="spacing" textLength="95.9014" x="4650.05" y="468.8467">BatteryProfile</text><line style="stroke:#181818;stroke-width:0.5;" x1="4622.05" x2="4747.9514" y1="480" y2="480"/><line style="stroke:#181818;stroke-width:0.5;" x1="4622.05" x2="4747.9514" y1="488" y2="488"/></g><!--class ConsumptionProfile--><g class="entity" data-entity="ConsumptionProfile" data-source-line="32" data-uid="ent0024" id="entity_ConsumptionProfile"><rect fill="#F1F1F1" height="48" rx="2.5" ry="2.5" style="stroke:#181818;stroke-width:0.5;" width="168.8076" x="4417.6" y="448"/><ellipse cx="4432.6" cy="464" fill="#ADD1B2" rx="11" ry="11" style="stroke:#181818;stroke-width:1;"/><path d="M4435.5688,469.6406 Q4434.9906,469.9375 4434.35,470.0781 Q4433.7094,470.2344 4433.0063,470.2344 Q4430.5063,470.2344 4429.1781,468.5938 Q4427.8656,466.9375 4427.8656,463.8125 Q4427.8656,460.6875 4429.1781,459.0313 Q4430.5063,457.375 4433.0063,457.375 Q4433.7094,457.375 4434.35,457.5313 Q4435.0063,457.6875 4435.5688,457.9844 L4435.5688,460.7031 Q4434.9438,460.125 4434.35,459.8594 Q4433.7563,459.5781 4433.1313,459.5781 Q4431.7875,459.5781 4431.1,460.6563 Q4430.4125,461.7188 4430.4125,463.8125 Q4430.4125,465.9063 4431.1,466.9844 Q4431.7875,468.0469 4433.1313,468.0469 Q4433.7563,468.0469 4434.35,467.7813 Q4434.9438,467.5 4435.5688,466.9219 L4435.5688,469.6406 Z " fill="#000000"/><text fill="#000000" font-family="sans-serif" font-size="14" lengthAdjust="spacing" textLength="136.8076" x="4446.6" y="468.8467">ConsumptionProfile</text><line style="stroke:#181818;stroke-width:0.5;" x1="4418.6" x2="4585.4076" y1="480" y2="480"/><line style="stroke:#181818;stroke-width:0.5;" x1="4418.6" x2="4585.4076" y1="488" y2="488"/></g><!--class RangeCalculatorService--><g class="entity" data-entity="RangeCalculatorService" data-source-line="33" data-uid="ent0025" id="entity_RangeCalculatorService"><rect fill="#F1F1F1" height="48" rx="2.5" ry="2.5" style="stroke:#181818;stroke-width:0.5;" width="199.5146" x="4089.24" y="340"/><ellipse cx="4104.24" cy="356" fill="#ADD1B2" rx="11" ry="11" style="stroke:#181818;stroke-width:1;"/><path d="M4107.2088,361.6406 Q4106.6306,361.9375 4105.99,362.0781 Q4105.3494,362.2344 4104.6463,362.2344 Q4102.1463,362.2344 4100.8181,360.5938 Q4099.5056,358.9375 4099.5056,355.8125 Q4099.5056,352.6875 4100.8181,351.0313 Q4102.1463,349.375 4104.6463,349.375 Q4105.3494,349.375 4105.99,349.5313 Q4106.6463,349.6875 4107.2088,349.9844 L4107.2088,352.7031 Q4106.5838,352.125 4105.99,351.8594 Q4105.3963,351.5781 4104.7713,351.5781 Q4103.4275,351.5781 4102.74,352.6563 Q4102.0525,353.7188 4102.0525,355.8125 Q4102.0525,357.9063 4102.74,358.9844 Q4103.4275,360.0469 4104.7713,360.0469 Q4105.3963,360.0469 4105.99,359.7813 Q4106.5838,359.5 4107.2088,358.9219 L4107.2088,361.6406 Z " fill="#000000"/><text fill="#000000" font-family="sans-serif" font-size="14" lengthAdjust="spacing" textLength="167.5146" x="4118.24" y="360.8467">RangeCalculatorService</text><line style="stroke:#181818;stroke-width:0.5;" x1="4090.24" x2="4287.7546" y1="372" y2="372"/><line style="stroke:#181818;stroke-width:0.5;" x1="4090.24" x2="4287.7546" y1="380" y2="380"/></g><!--class RangeCalculationStrategyInterface--><g class="entity" data-entity="RangeCalculationStrategyInterface" data-source-line="34" data-uid="ent0026" id="entity_RangeCalculationStrategyInterface"><rect fill="#F1F1F1" height="48" rx="2.5" ry="2.5" style="stroke:#181818;stroke-width:0.5;" width="277.4443" x="4050.28" y="448"/><ellipse cx="4065.28" cy="464" fill="#B4A7E5" rx="11" ry="11" style="stroke:#181818;stroke-width:1;"/><path d="M4061.2019,459.7656 L4061.2019,457.6094 L4068.5925,457.6094 L4068.5925,459.7656 L4066.1238,459.7656 L4066.1238,467.8438 L4068.5925,467.8438 L4068.5925,470 L4061.2019,470 L4061.2019,467.8438 L4063.6706,467.8438 L4063.6706,459.7656 L4061.2019,459.7656 Z " fill="#000000"/><text fill="#000000" font-family="sans-serif" font-size="14" font-style="italic" lengthAdjust="spacing" textLength="245.4443" x="4079.28" y="468.8467">RangeCalculationStrategyInterface</text><line style="stroke:#181818;stroke-width:0.5;" x1="4051.28" x2="4326.7243" y1="480" y2="480"/><line style="stroke:#181818;stroke-width:0.5;" x1="4051.28" x2="4326.7243" y1="488" y2="488"/></g><!--class WltpBasedRangeCalculationStrategy--><g class="entity" data-entity="WltpBasedRangeCalculationStrategy" data-source-line="35" data-uid="ent0027" id="entity_WltpBasedRangeCalculationStrategy"><rect fill="#F1F1F1" height="48" rx="2.5" ry="2.5" style="stroke:#181818;stroke-width:0.5;" width="289.8516" x="4324.07" y="340"/><ellipse cx="4339.07" cy="356" fill="#ADD1B2" rx="11" ry="11" style="stroke:#181818;stroke-width:1;"/><path d="M4342.0388,361.6406 Q4341.4606,361.9375 4340.82,362.0781 Q4340.1794,362.2344 4339.4763,362.2344 Q4336.9763,362.2344 4335.6481,360.5938 Q4334.3356,358.9375 4334.3356,355.8125 Q4334.3356,352.6875 4335.6481,351.0313 Q4336.9763,349.375 4339.4763,349.375 Q4340.1794,349.375 4340.82,349.5313 Q4341.4763,349.6875 4342.0388,349.9844 L4342.0388,352.7031 Q4341.4138,352.125 4340.82,351.8594 Q4340.2263,351.5781 4339.6013,351.5781 Q4338.2575,351.5781 4337.57,352.6563 Q4336.8825,353.7188 4336.8825,355.8125 Q4336.8825,357.9063 4337.57,358.9844 Q4338.2575,360.0469 4339.6013,360.0469 Q4340.2263,360.0469 4340.82,359.7813 Q4341.4138,359.5 4342.0388,358.9219 L4342.0388,361.6406 Z " fill="#000000"/><text fill="#000000" font-family="sans-serif" font-size="14" lengthAdjust="spacing" textLength="257.8516" x="4353.07" y="360.8467">WltpBasedRangeCalculationStrategy</text><line style="stroke:#181818;stroke-width:0.5;" x1="4325.07" x2="4612.9216" y1="372" y2="372"/><line style="stroke:#181818;stroke-width:0.5;" x1="4325.07" x2="4612.9216" y1="380" y2="380"/></g><!--class ConsumptionBasedRangeCalculationStrategy--><g class="entity" data-entity="ConsumptionBasedRangeCalculationStrategy" data-source-line="36" data-uid="ent0028" id="entity_ConsumptionBasedRangeCalculationStrategy"><rect fill="#F1F1F1" height="48" rx="2.5" ry="2.5" style="stroke:#181818;stroke-width:0.5;" width="350.4658" x="3703.77" y="340"/><ellipse cx="3718.77" cy="356" fill="#ADD1B2" rx="11" ry="11" style="stroke:#181818;stroke-width:1;"/><path d="M3721.7388,361.6406 Q3721.1606,361.9375 3720.52,362.0781 Q3719.8794,362.2344 3719.1763,362.2344 Q3716.6763,362.2344 3715.3481,360.5938 Q3714.0356,358.9375 3714.0356,355.8125 Q3714.0356,352.6875 3715.3481,351.0313 Q3716.6763,349.375 3719.1763,349.375 Q3719.8794,349.375 3720.52,349.5313 Q3721.1763,349.6875 3721.7388,349.9844 L3721.7388,352.7031 Q3721.1138,352.125 3720.52,351.8594 Q3719.9263,351.5781 3719.3013,351.5781 Q3717.9575,351.5781 3717.27,352.6563 Q3716.5825,353.7188 3716.5825,355.8125 Q3716.5825,357.9063 3717.27,358.9844 Q3717.9575,360.0469 3719.3013,360.0469 Q3719.9263,360.0469 3720.52,359.7813 Q3721.1138,359.5 3721.7388,358.9219 L3721.7388,361.6406 Z " fill="#000000"/><text fill="#000000" font-family="sans-serif" font-size="14" lengthAdjust="spacing" textLength="318.4658" x="3732.77" y="360.8467">ConsumptionBasedRangeCalculationStrategy</text><line style="stroke:#181818;stroke-width:0.5;" x1="3704.77" x2="4053.2358" y1="372" y2="372"/><line style="stroke:#181818;stroke-width:0.5;" x1="3704.77" x2="4053.2358" y1="380" y2="380"/></g><!--class JsonCarProfileRepository--><g class="entity" data-entity="JsonCarProfileRepository" data-source-line="40" data-uid="ent0030" id="entity_JsonCarProfileRepository"><rect fill="#F1F1F1" height="48" rx="2.5" ry="2.5" style="stroke:#181818;stroke-width:0.5;" width="204.1289" x="3443.94" y="340"/><ellipse cx="3458.94" cy="356" fill="#ADD1B2" rx="11" ry="11" style="stroke:#181818;stroke-width:1;"/><path d="M3461.9088,361.6406 Q3461.3306,361.9375 3460.69,362.0781 Q3460.0494,362.2344 3459.3463,362.2344 Q3456.8463,362.2344 3455.5181,360.5938 Q3454.2056,358.9375 3454.2056,355.8125 Q3454.2056,352.6875 3455.5181,351.0313 Q3456.8463,349.375 3459.3463,349.375 Q3460.0494,349.375 3460.69,349.5313 Q3461.3463,349.6875 3461.9088,349.9844 L3461.9088,352.7031 Q3461.2838,352.125 3460.69,351.8594 Q3460.0963,351.5781 3459.4713,351.5781 Q3458.1275,351.5781 3457.44,352.6563 Q3456.7525,353.7188 3456.7525,355.8125 Q3456.7525,357.9063 3457.44,358.9844 Q3458.1275,360.0469 3459.4713,360.0469 Q3460.0963,360.0469 3460.69,359.7813 Q3461.2838,359.5 3461.9088,358.9219 L3461.9088,361.6406 Z " fill="#000000"/><text fill="#000000" font-family="sans-serif" font-size="14" lengthAdjust="spacing" textLength="172.1289" x="3472.94" y="360.8467">JsonCarProfileRepository</text><line style="stroke:#181818;stroke-width:0.5;" x1="3444.94" x2="3647.0689" y1="372" y2="372"/><line style="stroke:#181818;stroke-width:0.5;" x1="3444.94" x2="3647.0689" y1="380" y2="380"/></g><!--class ConsoleUserInputAdapter--><g class="entity" data-entity="ConsoleUserInputAdapter" data-source-line="41" data-uid="ent0031" id="entity_ConsoleUserInputAdapter"><rect fill="#F1F1F1" height="48" rx="2.5" ry="2.5" style="stroke:#181818;stroke-width:0.5;" width="211.5254" x="3197.24" y="340"/><ellipse cx="3212.24" cy="356" fill="#ADD1B2" rx="11" ry="11" style="stroke:#181818;stroke-width:1;"/><path d="M3215.2088,361.6406 Q3214.6306,361.9375 3213.99,362.0781 Q3213.3494,362.2344 3212.6463,362.2344 Q3210.1463,362.2344 3208.8181,360.5938 Q3207.5056,358.9375 3207.5056,355.8125 Q3207.5056,352.6875 3208.8181,351.0313 Q3210.1463,349.375 3212.6463,349.375 Q3213.3494,349.375 3213.99,349.5313 Q3214.6463,349.6875 3215.2088,349.9844 L3215.2088,352.7031 Q3214.5838,352.125 3213.99,351.8594 Q3213.3963,351.5781 3212.7713,351.5781 Q3211.4275,351.5781 3210.74,352.6563 Q3210.0525,353.7188 3210.0525,355.8125 Q3210.0525,357.9063 3210.74,358.9844 Q3211.4275,360.0469 3212.7713,360.0469 Q3213.3963,360.0469 3213.99,359.7813 Q3214.5838,359.5 3215.2088,358.9219 L3215.2088,361.6406 Z " fill="#000000"/><text fill="#000000" font-family="sans-serif" font-size="14" lengthAdjust="spacing" textLength="179.5254" x="3226.24" y="360.8467">ConsoleUserInputAdapter</text><line style="stroke:#181818;stroke-width:0.5;" x1="3198.24" x2="3407.7654" y1="372" y2="372"/><line style="stroke:#181818;stroke-width:0.5;" x1="3198.24" x2="3407.7654" y1="380" y2="380"/></g><!--class ConsoleUserOutputAdapter--><g class="entity" data-entity="ConsoleUserOutputAdapter" data-source-line="42" data-uid="ent0032" id="entity_ConsoleUserOutputAdapter"><rect fill="#F1F1F1" height="48" rx="2.5" ry="2.5" style="stroke:#181818;stroke-width:0.5;" width="223.9053" x="2938.05" y="340"/><ellipse cx="2953.05" cy="356" fill="#ADD1B2" rx="11" ry="11" style="stroke:#181818;stroke-width:1;"/><path d="M2956.0188,361.6406 Q2955.4406,361.9375 2954.8,362.0781 Q2954.1594,362.2344 2953.4563,362.2344 Q2950.9563,362.2344 2949.6281,360.5938 Q2948.3156,358.9375 2948.3156,355.8125 Q2948.3156,352.6875 2949.6281,351.0313 Q2950.9563,349.375 2953.4563,349.375 Q2954.1594,349.375 2954.8,349.5313 Q2955.4563,349.6875 2956.0188,349.9844 L2956.0188,352.7031 Q2955.3938,352.125 2954.8,351.8594 Q2954.2063,351.5781 2953.5813,351.5781 Q2952.2375,351.5781 2951.55,352.6563 Q2950.8625,353.7188 2950.8625,355.8125 Q2950.8625,357.9063 2951.55,358.9844 Q2952.2375,360.0469 2953.5813,360.0469 Q2954.2063,360.0469 2954.8,359.7813 Q2955.3938,359.5 2956.0188,358.9219 L2956.0188,361.6406 Z " fill="#000000"/><text fill="#000000" font-family="sans-serif" font-size="14" lengthAdjust="spacing" textLength="191.9053" x="2967.05" y="360.8467">ConsoleUserOutputAdapter</text><line style="stroke:#181818;stroke-width:0.5;" x1="2939.05" x2="3160.9553" y1="372" y2="372"/><line style="stroke:#181818;stroke-width:0.5;" x1="2939.05" x2="3160.9553" y1="380" y2="380"/></g><!--link ApplicationControllerWithActionMenu to CalculateRangeUseCaseInterface--><g class="link" data-entity-1="ApplicationControllerWithActionMenu" data-entity-2="CalculateRangeUseCaseInterface" data-source-line="46" data-uid="lnk33" id="link_ApplicationControllerWithActionMenu_CalculateRangeUseCaseInterface"><path codeLine="46" d="M619.99,133.45 C736.01,170.14 970.05,241.8 1172,289 C1262.52,310.16 1359.6622,327.8901 1439.2922,341.2101" fill="none" id="ApplicationControllerWithActionMenu-to-CalculateRangeUseCaseInterface" style="stroke:#181818;stroke-width:1;"/><polygon fill="#181818" points="1445.21,342.2,1436.9933,336.77,1440.2785,341.3751,1435.6734,344.6604,1445.21,342.2" style="stroke:#181818;stroke-width:1;"/></g><!--link ApplicationControllerWithActionMenu to CreateCarProfileUseCaseInterface--><g class="link" data-entity-1="ApplicationControllerWithActionMenu" data-entity-2="CreateCarProfileUseCaseInterface" data-source-line="47" data-uid="lnk34" id="link_ApplicationControllerWithActionMenu_CreateCarProfileUseCaseInterface"><path codeLine="47" d="M694.47,131.05 C700.39,131.74 706.25,132.39 712,133 C816.58,144.04 844.48,131.49 948,150 C1166.63,189.08 1208.54,254.87 1428,289 C1493.9,299.25 1661.56,291.22 1728,297 C1834.83,306.3 1949.1336,323.5419 2037.8136,338.5019" fill="none" id="ApplicationControllerWithActionMenu-to-CreateCarProfileUseCaseInterface" style="stroke:#181818;stroke-width:1;"/><polygon fill="#181818" points="2043.73,339.5,2035.5208,334.0586,2038.7997,338.6683,2034.19,341.9472,2043.73,339.5" style="stroke:#181818;stroke-width:1;"/></g><!--link ApplicationControllerWithActionMenu to NavigationUseCase--><g class="link" data-entity-1="ApplicationControllerWithActionMenu" data-entity-2="NavigationUseCase" data-source-line="48" data-uid="lnk35" id="link_ApplicationControllerWithActionMenu_NavigationUseCase"><path codeLine="48" d="M694.43,131.45 C700.36,132.03 706.23,132.55 712,133 C765.29,137.17 1622.91,134.29 1674,150 C1701.83,158.56 1724.5291,173.539 1743.7391,188.859" fill="none" id="ApplicationControllerWithActionMenu-to-NavigationUseCase" style="stroke:#181818;stroke-width:1;"/><polygon fill="#181818" points="1748.43,192.6,1743.8876,183.8612,1744.5209,189.4825,1738.8996,190.1158,1748.43,192.6" style="stroke:#181818;stroke-width:1;"/></g><!--link AcChargingController to UserInputPortInterface--><g class="link" data-entity-1="AcChargingController" data-entity-2="UserInputPortInterface" data-source-line="49" data-uid="lnk36" id="link_AcChargingController_UserInputPortInterface"><path codeLine="49" d="M911.38,130.62 C917.32,131.55 923.23,132.36 929,133 C994.49,140.31 2051.52,132.33 2115,150 C2145.42,158.47 2171.2209,173.7361 2192.9309,189.0861" fill="none" id="AcChargingController-to-UserInputPortInterface" style="stroke:#181818;stroke-width:1;"/><polygon fill="#181818" points="2197.83,192.55,2192.7906,184.0881,2193.7474,189.6634,2188.1721,190.6202,2197.83,192.55" style="stroke:#181818;stroke-width:1;"/></g><!--link AcChargingController to UserOutputPortInterface--><g class="link" data-entity-1="AcChargingController" data-entity-2="UserOutputPortInterface" data-source-line="50" data-uid="lnk37" id="link_AcChargingController_UserOutputPortInterface"><path codeLine="50" d="M911.38,130.6 C917.32,131.53 923.23,132.35 929,133 C1033.57,144.86 1774.31,122.9 1876,150 C1907.94,158.51 1935.5678,173.9268 1958.7278,189.2668" fill="none" id="AcChargingController-to-UserOutputPortInterface" style="stroke:#181818;stroke-width:1;"/><polygon fill="#181818" points="1963.73,192.58,1958.4355,184.2753,1959.5615,189.819,1954.0178,190.945,1963.73,192.58" style="stroke:#181818;stroke-width:1;"/></g><!--link DcChargingController to UserInputPortInterface--><g class="link" data-entity-1="DcChargingController" data-entity-2="UserInputPortInterface" data-source-line="51" data-uid="lnk38" id="link_DcChargingController_UserInputPortInterface"><path codeLine="51" d="M1129.92,130.55 C1136.02,131.5 1142.09,132.34 1148,133 C1254.79,144.99 2011.52,121.02 2115,150 C2145.41,158.52 2171.2098,173.7776 2192.9198,189.1176" fill="none" id="DcChargingController-to-UserInputPortInterface" style="stroke:#181818;stroke-width:1;"/><polygon fill="#181818" points="2197.82,192.58,2192.778,184.1196,2193.7365,189.6947,2188.1615,190.6532,2197.82,192.58" style="stroke:#181818;stroke-width:1;"/></g><!--link CalculateRangeInteractor to CalculateRangeUseCaseInterface--><g class="link" data-entity-1="CalculateRangeInteractor" data-entity-2="CalculateRangeUseCaseInterface" data-source-line="54" data-uid="lnk39" id="link_CalculateRangeInteractor_CalculateRangeUseCaseInterface"><path codeLine="54" d="M1555.34,241.3 C1560.38,268.36 1565.3469,295.0338 1570.3769,322.0638" fill="none" id="CalculateRangeInteractor-to-CalculateRangeUseCaseInterface" style="stroke:#181818;stroke-width:1;stroke-dasharray:7.0,7.0;"/><polygon fill="none" points="1573.67,339.76,1576.2757,320.9661,1564.4782,323.1615,1573.67,339.76" style="stroke:#181818;stroke-width:1;"/></g><!--link CalculateRangeInteractor to RangeCalculatorService--><g class="link" data-entity-1="CalculateRangeInteractor" data-entity-2="RangeCalculatorService" data-source-line="55" data-uid="lnk40" id="link_CalculateRangeInteractor_RangeCalculatorService"><path codeLine="55" d="M1580.85,241.22 C1604.61,258.15 1639.48,279.69 1674,289 C1738.31,306.34 4007.6,279.97 4072,297 C4103.57,305.35 4130.6524,320.9058 4153.2024,336.3758" fill="none" id="CalculateRangeInteractor-to-RangeCalculatorService" style="stroke:#181818;stroke-width:1;"/><polygon fill="#181818" points="4158.15,339.77,4152.9914,331.3802,4154.027,336.9415,4148.4657,337.9771,4158.15,339.77" style="stroke:#181818;stroke-width:1;"/></g><!--link CreateCarProfileInteractor to CreateCarProfileUseCaseInterface--><g class="link" data-entity-1="CreateCarProfileInteractor" data-entity-2="CreateCarProfileUseCaseInterface" data-source-line="56" data-uid="lnk41" id="link_CreateCarProfileInteractor_CreateCarProfileUseCaseInterface"><path codeLine="56" d="M2427.8,241.37 C2403.2,255.72 2370.62,274.13 2341,289 C2304.72,307.21 2279.5266,318.6476 2246.8466,332.5876" fill="none" id="CreateCarProfileInteractor-to-CreateCarProfileUseCaseInterface" style="stroke:#181818;stroke-width:1;stroke-dasharray:7.0,7.0;"/><polygon fill="none" points="2230.29,339.65,2249.2008,338.1065,2244.4925,327.0687,2230.29,339.65" style="stroke:#181818;stroke-width:1;"/></g><!--link CreateCarProfileInteractor to CarProfile--><g class="link" data-entity-1="CreateCarProfileInteractor" data-entity-2="CarProfile" data-source-line="57" data-uid="lnk42" id="link_CreateCarProfileInteractor_CarProfile"><path codeLine="57" d="M2497.92,241.39 C2522.3,258.3 2557.92,279.72 2593,289 C2620.37,296.24 4604.79,286.31 4631,297 C4652.18,305.63 4666.6518,319.6648 4678.8918,334.9648" fill="none" id="CreateCarProfileInteractor-to-CarProfile" style="stroke:#181818;stroke-width:1;"/><polygon fill="#181818" points="4682.64,339.65,4680.1412,330.1234,4679.5165,335.7457,4673.8943,335.121,4682.64,339.65" style="stroke:#181818;stroke-width:1;"/></g><!--link RangeCalculatorService to RangeCalculationStrategyInterface--><g class="link" data-entity-1="RangeCalculatorService" data-entity-2="RangeCalculationStrategyInterface" data-source-line="60" data-uid="lnk43" id="link_RangeCalculatorService_RangeCalculationStrategyInterface"><path codeLine="60" d="M4189,388.26 C4189,405.94 4189,424.13 4189,441.79" fill="none" id="RangeCalculatorService-to-RangeCalculationStrategyInterface" style="stroke:#181818;stroke-width:1;"/><polygon fill="#181818" points="4189,447.79,4193,438.79,4189,442.79,4185,438.79,4189,447.79" style="stroke:#181818;stroke-width:1;"/></g><!--link WltpBasedRangeCalculationStrategy to RangeCalculationStrategyInterface--><g class="link" data-entity-1="WltpBasedRangeCalculationStrategy" data-entity-2="RangeCalculationStrategyInterface" data-source-line="61" data-uid="lnk44" id="link_WltpBasedRangeCalculationStrategy_RangeCalculationStrategyInterface"><path codeLine="61" d="M4407.21,388.39 C4360.66,406.01 4313.9733,423.6851 4267.4733,441.2951" fill="none" id="WltpBasedRangeCalculationStrategy-to-RangeCalculationStrategyInterface" style="stroke:#181818;stroke-width:1;stroke-dasharray:7.0,7.0;"/><polygon fill="none" points="4250.64,447.67,4269.5983,446.9062,4265.3483,435.684,4250.64,447.67" style="stroke:#181818;stroke-width:1;"/></g><!--link ConsumptionBasedRangeCalculationStrategy to RangeCalculationStrategyInterface--><g class="link" data-entity-1="ConsumptionBasedRangeCalculationStrategy" data-entity-2="RangeCalculationStrategyInterface" data-source-line="62" data-uid="lnk45" id="link_ConsumptionBasedRangeCalculationStrategy_RangeCalculationStrategyInterface"><path codeLine="62" d="M3947.41,388.39 C3998.86,405.98 4051.9976,424.158 4103.4576,441.748" fill="none" id="ConsumptionBasedRangeCalculationStrategy-to-RangeCalculationStrategyInterface" style="stroke:#181818;stroke-width:1;stroke-dasharray:7.0,7.0;"/><polygon fill="none" points="4120.49,447.57,4105.3982,436.0705,4101.5169,447.4255,4120.49,447.57" style="stroke:#181818;stroke-width:1;"/></g><!--link CarProfile to BatteryProfile--><g class="link" data-entity-1="CarProfile" data-entity-2="BatteryProfile" data-source-line="63" data-uid="lnk46" id="link_CarProfile_BatteryProfile"><path codeLine="63" d="M4695.93,388.26 C4693.59,405.94 4691.1848,424.1815 4688.8548,441.8415" fill="none" id="CarProfile-to-BatteryProfile" style="stroke:#181818;stroke-width:1;"/><polygon fill="#181818" points="4688.07,447.79,4693.2129,439.3905,4688.724,442.833,4685.2816,438.3441,4688.07,447.79" style="stroke:#181818;stroke-width:1;"/></g><!--link CarProfile to ConsumptionProfile--><g class="link" data-entity-1="CarProfile" data-entity-2="ConsumptionProfile" data-source-line="64" data-uid="lnk47" id="link_CarProfile_ConsumptionProfile"><path codeLine="64" d="M4667.58,388.43 C4656.32,396.36 4643.35,404.98 4631,412 C4608.09,425.02 4587.2905,435.0503 4564.4405,445.1203" fill="none" id="CarProfile-to-ConsumptionProfile" style="stroke:#181818;stroke-width:1;"/><polygon fill="#181818" points="4558.95,447.54,4568.7988,447.5708,4563.5254,445.5236,4565.5726,440.2502,4558.95,447.54" style="stroke:#181818;stroke-width:1;"/></g><!--link JsonCarProfileRepository to CarProfilePersistencePortInterface--><g class="link" data-entity-1="JsonCarProfileRepository" data-entity-2="CarProfilePersistencePortInterface" data-source-line="67" data-uid="lnk48" id="link_JsonCarProfileRepository_CarProfilePersistencePortInterface"><path codeLine="67" d="M3497.47,339.58 C3471.74,324.85 3439.8,306.84 3409,297 C3232.39,240.57 3036.4995,224.1951 2900.2095,219.5351" fill="none" id="JsonCarProfileRepository-to-CarProfilePersistencePortInterface" style="stroke:#181818;stroke-width:1;stroke-dasharray:7.0,7.0;"/><polygon fill="none" points="2882.22,218.92,2900.0045,225.5316,2900.4145,213.5386,2882.22,218.92" style="stroke:#181818;stroke-width:1;"/></g><!--reverse link CarProfilePersistencePortInterface to JsonCarProfileRepository--><g class="link" data-entity-1="CarProfilePersistencePortInterface" data-entity-2="JsonCarProfileRepository" data-source-line="72" data-uid="lnk51" id="link_CarProfilePersistencePortInterface_JsonCarProfileRepository"><path codeLine="72" d="M2888.1283,218.3013 C3031.5883,221.6813 3255.93,236.91 3444,297 C3474.8,306.84 3506.74,324.85 3527.22,339.58" fill="none" id="CarProfilePersistencePortInterface-backto-JsonCarProfileRepository" style="stroke:#181818;stroke-width:1;stroke-dasharray:7.0,7.0;"/><polygon fill="#181818" points="2882.13,218.16,2891.0333,222.3709,2887.1286,218.2778,2891.2217,214.3731,2882.13,218.16" style="stroke:#181818;stroke-width:1;"/></g><!--link ConsoleUserInputAdapter to UserInputPortInterface--><g class="link" data-entity-1="ConsoleUserInputAdapter" data-entity-2="UserInputPortInterface" data-source-line="68" data-uid="lnk49" id="link_ConsoleUserInputAdapter_UserInputPortInterface"><path codeLine="68" d="M3255.57,339.65 C3228.83,324.24 3194.97,305.39 3162,297 C3116.94,285.52 2369.65,302 2325,289 C2292.76,279.62 2274.1438,270.3117 2255.3038,253.4817" fill="none" id="ConsoleUserInputAdapter-to-UserInputPortInterface" style="stroke:#181818;stroke-width:1;stroke-dasharray:7.0,7.0;"/><polygon fill="none" points="2241.88,241.49,2251.3066,257.9563,2259.3011,249.0071,2241.88,241.49" style="stroke:#181818;stroke-width:1;"/></g><!--reverse link UserInputPortInterface to ConsoleUserInputAdapter--><g class="link" data-entity-1="UserInputPortInterface" data-entity-2="ConsoleUserInputAdapter" data-source-line="73" data-uid="lnk52" id="link_UserInputPortInterface_ConsoleUserInputAdapter"><path codeLine="73" d="M2275.6316,244.8342 C2300.7016,261.6642 2327.76,279.62 2360,289 C2404.65,302 3151.94,285.52 3197,297 C3230.09,305.42 3264.07,324.37 3285.13,339.82" fill="none" id="UserInputPortInterface-backto-ConsoleUserInputAdapter" style="stroke:#181818;stroke-width:1;stroke-dasharray:7.0,7.0;"/><polygon fill="#181818" points="2270.65,241.49,2275.8929,249.8274,2274.8013,244.2769,2280.3519,243.1853,2270.65,241.49" style="stroke:#181818;stroke-width:1;"/></g><!--link ConsoleUserOutputAdapter to UserOutputPortInterface--><g class="link" data-entity-1="ConsoleUserOutputAdapter" data-entity-2="UserOutputPortInterface" data-source-line="69" data-uid="lnk50" id="link_ConsoleUserOutputAdapter_UserOutputPortInterface"><path codeLine="69" d="M2994.35,339.63 C2961.86,324.21 2920.25,305.36 2881,297 C2838.45,287.93 2139.88,300.77 2098,289 C2064.65,279.62 2044.9075,269.961 2025.0175,253.121" fill="none" id="ConsoleUserOutputAdapter-to-UserOutputPortInterface" style="stroke:#181818;stroke-width:1;stroke-dasharray:7.0,7.0;"/><polygon fill="none" points="2011.28,241.49,2021.1406,257.7002,2028.8945,248.5418,2011.28,241.49" style="stroke:#181818;stroke-width:1;"/></g><!--reverse link UserOutputPortInterface to ConsoleUserOutputAdapter--><g class="link" data-entity-1="UserOutputPortInterface" data-entity-2="ConsoleUserOutputAdapter" data-source-line="74" data-uid="lnk53" id="link_UserOutputPortInterface_ConsoleUserOutputAdapter"><path codeLine="74" d="M2045.0928,244.7412 C2071.2128,261.5812 2099.65,279.62 2133,289 C2174.88,300.77 2873.45,287.93 2916,297 C2955.25,305.36 2996.86,324.21 3023.69,339.63" fill="none" id="UserOutputPortInterface-backto-ConsoleUserOutputAdapter" style="stroke:#181818;stroke-width:1;stroke-dasharray:7.0,7.0;"/><polygon fill="#181818" points="2040.05,241.49,2045.4467,249.7286,2044.2523,244.1993,2049.7817,243.0049,2040.05,241.49" style="stroke:#181818;stroke-width:1;"/></g><!--SRC=[bLN1ZjiW4BtxAz1UUag-eAgKJIwfkcsKgDqp8cC7BGOquAoYTl-zs8vjJC3sIZunRuPvZtbZyyQbfaXBeYbxemMSx4q0GM2Moa90bjtFoTC1mO2qr78boGzw0tmYVpD2cA36a8tMWhCck5NIeX82y9NRouRLPoyWgm7BjXUA1PV50Es3kwdWqJK5MofO9OAh7CHzVRD_EBotxNMfho2OAg4EUATRYWTKEHTXu8NofkdWU61p3tna7vv6dWg-H5nQm9mo85tlq33vRHmP0_ikF8OYEDpGu3IuXnq03JSM98E3GXk7krgubxgoqv1VbOrWia4ydqm3eSoguRb22X78JthbHIFOdTz8pvqgtJiyJjjGiZzwfjOLluN7Ra9CLUhwWZ0q6YQ59y0h3qG8v-raqH4gRhuSz_4ILZ-xzi-fb5X7qmc-47kP8pKMAsOhX4T1lXjdXbwK8sXbkECqlbKrGzG-_EPCjVMSvSNRL-y0heilP0SQvDdDr8taGhsJ75L9HWl1Ady5P0lM0LcjlitvON6PEQyiBVGuZh5brK0J7fh4nmor- -G5gUVmTuzxZTOwMSgZPBt-Doj_ChbkBs6VjEVlLyuzrKI1Tc9wwzTAj0lY2Artp8LhayKxUsmwQkXP8xSqvWijzVdYUZtnXacmxu9ePEqvjO8jmaijeEmiR0YjBU_ci1uVUu7HH6atWoPBhPbkccP_GearrEOd1ZwrceQacAt6DjdBQzsI8x8ALJWtA4DSp2VS_mHCDi-BV5slqpiupgl9IQtb1AimPwJ7Vm00]--></g></svg>